<svg width="32" height="32" viewBox="0 0 32 32" fill="none" xmlns="http://www.w3.org/2000/svg">
<g clip-path="url(#clip0_26_612)">
<rect width="32" height="32" rx="16" fill="white"/>
<rect x="29.7104" y="-21" width="8" height="100" transform="rotate(45 29.7104 -21)" fill="#9CE3EB"/>
<rect x="35.7104" y="-15" width="8" height="100" transform="rotate(45 35.7104 -15)" fill="#FFC2F5"/>
<rect x="41.7104" y="-9" width="8" height="100" transform="rotate(45 41.7104 -9)" fill="#C1F28A"/>
<rect x="47.7104" y="-3" width="8" height="100" transform="rotate(45 47.7104 -3)" fill="#57459E"/>
<rect x="4.5" y="4.5" width="23" height="23" rx="11.5" fill="black"/>
<rect x="4.5" y="4.5" width="23" height="23" rx="11.5" stroke="white"/>
<path d="M15.7376 18.312C15.8762 18.6213 15.8816 18.9253 15.7536 19.224C15.6256 19.512 15.4229 19.7787 15.1456 20.024C14.8682 20.2693 14.5482 20.4827 14.1856 20.664C13.8336 20.8453 13.4976 20.9733 13.1776 21.048C12.8256 21.1227 12.4522 21.1547 12.0576 21.144C11.6736 21.144 11.2842 21.096 10.8896 21C10.5056 20.9147 10.1269 20.7867 9.75356 20.616C9.3909 20.4347 9.0549 20.216 8.74556 19.96C8.37223 19.6507 8.0789 19.2827 7.86556 18.856C7.6629 18.4187 7.51356 17.9547 7.41756 17.464C7.32156 16.9733 7.26823 16.4827 7.25756 15.992C7.25756 15.4907 7.27356 15.0213 7.30556 14.584C7.33756 14.1893 7.41756 13.7787 7.54556 13.352C7.67356 12.9253 7.84956 12.5093 8.07356 12.104C8.30823 11.688 8.58556 11.304 8.90556 10.952C9.23623 10.6 9.62023 10.3013 10.0576 10.056C10.3882 9.864 10.7562 9.736 11.1616 9.672C11.5776 9.59733 11.9936 9.58133 12.4096 9.624C12.8362 9.656 13.2362 9.74667 13.6096 9.896C13.9936 10.0347 14.3189 10.2267 14.5856 10.472C14.7562 10.6213 14.9322 10.8293 15.1136 11.096C15.3056 11.3627 15.4442 11.6347 15.5296 11.912C15.6149 12.1893 15.6149 12.4507 15.5296 12.696C15.4549 12.9307 15.2416 13.0907 14.8896 13.176C14.7402 13.2187 14.6069 13.2293 14.4896 13.208C14.3722 13.176 14.2656 13.128 14.1696 13.064C14.0736 12.9893 13.9829 12.904 13.8976 12.808C13.8122 12.712 13.7322 12.616 13.6576 12.52C13.4016 12.2107 13.1029 12.0027 12.7616 11.896C12.4202 11.7787 12.0789 11.752 11.7376 11.816C11.4069 11.8693 11.0922 12.008 10.7936 12.232C10.5056 12.4453 10.2816 12.7227 10.1216 13.064C9.9509 13.4267 9.81223 13.8267 9.70556 14.264C9.60956 14.6907 9.55623 15.128 9.54556 15.576C9.5349 16.0133 9.57223 16.44 9.65756 16.856C9.75356 17.272 9.91356 17.64 10.1376 17.96C10.3082 18.216 10.5162 18.424 10.7616 18.584C11.0176 18.744 11.2896 18.856 11.5776 18.92C11.8656 18.984 12.1536 18.9947 12.4416 18.952C12.7402 18.9093 13.0282 18.8133 13.3056 18.664C13.3909 18.6213 13.4816 18.5627 13.5776 18.488C13.6842 18.4027 13.7909 18.3173 13.8976 18.232C14.0042 18.1467 14.1109 18.0667 14.2176 17.992C14.3349 17.9173 14.4576 17.864 14.5856 17.832C14.7776 17.768 14.9856 17.7733 15.2096 17.848C15.4442 17.9227 15.6202 18.0773 15.7376 18.312ZM23.4362 15.096C23.7455 15.2987 24.0069 15.5387 24.2202 15.816C24.4442 16.0827 24.6202 16.4133 24.7482 16.808C24.8869 17.2453 24.9562 17.688 24.9562 18.136C24.9669 18.5733 24.8869 18.984 24.7162 19.368C24.5562 19.7413 24.2949 20.072 23.9322 20.36C23.5802 20.6373 23.1162 20.8347 22.5402 20.952C22.2309 21.0267 21.8682 21.0853 21.4522 21.128C21.0362 21.1707 20.6629 21.192 20.3322 21.192C19.9162 21.2027 19.4842 21.2027 19.0362 21.192C18.5989 21.192 18.1722 21.1493 17.7562 21.064C17.5749 21.0107 17.4415 20.92 17.3562 20.792C17.2815 20.6533 17.2282 20.4987 17.1962 20.328C17.1535 20.232 17.1322 20.136 17.1322 20.04V10.952C17.1322 10.6533 17.1909 10.424 17.3082 10.264C17.4362 10.0933 17.6015 9.97067 17.8042 9.896C18.0069 9.81067 18.2362 9.76267 18.4922 9.752C18.7482 9.73067 19.0149 9.72 19.2922 9.72C19.5055 9.72 19.7189 9.72 19.9322 9.72C20.1562 9.70933 20.3802 9.70933 20.6042 9.72C20.9562 9.73067 21.3189 9.76267 21.6922 9.816C22.0762 9.85867 22.4389 9.944 22.7802 10.072C22.9402 10.1253 23.1109 10.2 23.2922 10.296C23.4735 10.3813 23.6175 10.488 23.7242 10.616C24.0655 10.9253 24.3162 11.288 24.4762 11.704C24.6469 12.1093 24.7215 12.5253 24.7002 12.952C24.6789 13.368 24.5615 13.768 24.3482 14.152C24.1455 14.536 23.8415 14.8507 23.4362 15.096ZM20.6362 19.336C20.9669 19.3147 21.3029 19.2773 21.6442 19.224C21.9855 19.1707 22.2202 19.0693 22.3482 18.92C22.4869 18.7493 22.5829 18.552 22.6362 18.328C22.7002 18.0933 22.7162 17.8587 22.6842 17.624C22.6629 17.3787 22.5935 17.1493 22.4762 16.936C22.3695 16.712 22.2255 16.536 22.0442 16.408C21.7989 16.216 21.5162 16.0933 21.1962 16.04C20.8762 15.976 20.5615 15.944 20.2522 15.944C20.1029 15.944 19.9642 15.9493 19.8362 15.96C19.7189 15.96 19.6122 15.976 19.5162 16.008C19.4309 16.0293 19.3669 16.0773 19.3242 16.152C19.2815 16.2267 19.2602 16.3387 19.2602 16.488C19.2815 16.7653 19.2815 17.0427 19.2602 17.32C19.2389 17.5973 19.2282 17.864 19.2282 18.12C19.2282 18.2693 19.2229 18.4347 19.2122 18.616C19.2122 18.7867 19.2709 18.9307 19.3882 19.048C19.5055 19.1653 19.6762 19.2453 19.9002 19.288C20.1242 19.3307 20.3695 19.3467 20.6362 19.336ZM20.9562 11.656C20.6255 11.6453 20.3482 11.64 20.1242 11.64C19.9109 11.6293 19.7402 11.6453 19.6122 11.688C19.4949 11.72 19.4095 11.8 19.3562 11.928C19.3135 12.0453 19.2975 12.2267 19.3082 12.472C19.3082 12.6747 19.3029 12.8773 19.2922 13.08C19.2922 13.272 19.2922 13.464 19.2922 13.656C19.2922 13.8693 19.3615 14.0293 19.5002 14.136C19.6389 14.232 19.8095 14.2907 20.0122 14.312C20.2255 14.3333 20.4442 14.3333 20.6682 14.312C20.9029 14.2907 21.1055 14.264 21.2762 14.232C21.6602 14.168 21.9535 14.04 22.1562 13.848C22.3695 13.6453 22.4922 13.352 22.5242 12.968C22.5669 12.488 22.4389 12.1573 22.1402 11.976C21.8522 11.784 21.4575 11.6773 20.9562 11.656Z" fill="white"/>
</g>
<rect x="0.5" y="0.5" width="31" height="31" rx="15.5" stroke="white"/>
<defs>
<clipPath id="clip0_26_612">
<rect width="32" height="32" rx="16" fill="white"/>
</clipPath>
</defs>
</svg>
